<svg xmlns="http://www.w3.org/2000/svg" width="129" height="50" viewBox="0 0 129 50" fill="none"><path d="M0 12.0977H16.7707V15.9748H4.74989V21.3961H14.9368V25.3037H4.74989V34.6326H0V12.0977Z" fill="#263447"/><path d="M35.0079 20.6748H35.1046C36.2373 18.9411 37.7569 18.0279 40.0222 18.0279C43.4513 18.0279 45.7494 20.5487 45.7494 24.0769V34.6326H41.3498V24.7075C41.3498 22.9737 40.3155 21.746 38.4698 21.746C36.529 21.746 35.1046 23.2579 35.1046 25.4641V34.6326H30.7051V18.4686H35.0079V20.6733V20.6748Z" fill="#263447"/><path d="M47.7242 26.5663C47.7242 21.523 50.7135 18.024 54.9178 18.024C57.2829 18.024 58.7609 19.0637 59.6813 20.4195H59.7795V12.0977H64.2467V34.6343H59.9427V32.523H59.8777C58.8924 34.0673 57.2164 35.107 54.8513 35.107C50.6137 35.107 47.7227 31.798 47.7227 26.5647L47.7242 26.5663ZM59.8793 26.6605C59.8793 23.5719 58.829 21.4911 55.9696 21.4911C53.5063 21.4911 52.258 23.5719 52.258 26.5663C52.258 29.5606 53.5396 31.5153 55.8382 31.5153C58.4995 31.5153 59.8793 29.6244 59.8793 26.6605Z" fill="#263447"/><path d="M128.121 11.3496C127.241 11.7866 126.447 12.1814 125.657 12.5721C120.059 3.01943 109.379 0.965094 101.26 4.5481C100.844 3.75255 100.428 2.95297 100.008 2.14734C109.211 -2.77501 123.053 0.961067 128.123 11.3475L128.121 11.3496Z" fill="#0573E9"/><path d="M103.941 9.83783C103.527 9.02265 103.124 8.22939 102.721 7.43414C109.495 3.83657 119.336 6.96975 122.698 13.8918C121.851 14.2326 121.001 14.5775 120.087 14.9442C116.257 9.25983 110.82 7.476 103.941 9.83783Z" fill="#3893F5"/><path d="M117.271 16.8199C116.728 16.9844 116.267 17.1052 115.823 17.2657C115.428 17.4083 115.053 17.5965 114.611 17.7907C112.619 14.9358 109.912 14.0146 106.457 15.1656C106.015 14.3276 105.6 13.545 105.187 12.7605C109.522 10.6485 114.917 12.3543 117.271 16.8199Z" fill="#5EA8F8"/><path d="M21.4023 18.3004C22.5095 18.2559 23.622 18.2509 24.7275 18.2985C24.9229 18.3069 25.1137 18.3806 25.3008 18.5026H25.4023V18.5739C26.7925 19.6254 27.879 23.4141 27.8682 24.8532C27.8619 25.7266 27.311 26.302 26.4092 26.319C26.0738 26.3254 25.738 26.3277 25.4023 26.3287V34.6325H20.9629V26.3209C20.5843 26.3208 20.2055 26.3242 19.8271 26.3209C18.7608 26.3117 18.2128 25.7385 18.252 24.7037C18.3133 23.0821 19.7443 18.3685 21.4023 18.3004ZM23.168 13.0465C24.5411 13.042 25.6469 14.0935 25.6484 15.4059C25.6484 16.7363 24.5635 17.7952 23.1982 17.7907C21.8096 17.7876 20.728 16.7589 20.7168 15.4332C20.7058 14.121 21.8045 13.0513 23.168 13.0465Z" fill="#4290F9"/><path d="M73.1281 12.0977H79.7739L83.0637 23.413C83.8776 26.249 84.5296 29.4955 84.5296 29.4955H84.594C84.594 29.4955 85.213 26.249 86.0268 23.413L89.3167 12.0977H96.0614V34.6326H91.6639V21.7108C91.6639 19.8824 91.8587 17.0463 91.8587 17.0463H91.7943C91.7943 17.0463 91.2727 19.6939 90.7841 21.3323L86.7762 34.6326H82.2484L78.3379 21.3323C77.8493 19.6939 77.3277 17.0463 77.3277 17.0463H77.2633C77.2633 17.0463 77.4581 19.8824 77.4581 21.7108V34.6326H73.125V12.0977H73.1281Z" fill="#1D81EC"/><path d="M98.5283 26.5355C98.5283 21.7461 101.892 18.0279 106.79 18.0279C112.178 18.0279 115.052 21.9983 115.052 27.7648H102.905C103.231 30.2537 104.668 31.7975 107.183 31.7975C108.914 31.7975 109.927 31.0408 110.416 29.8131H114.793C114.172 32.6804 111.526 35.107 107.216 35.107C101.665 35.107 98.5299 31.3569 98.5299 26.5371L98.5283 26.5355ZM102.971 24.8033H110.416C110.286 22.755 108.881 21.3374 106.857 21.3374C104.506 21.3374 103.363 22.6927 102.971 24.8033Z" fill="#1D81EC"/></svg>