<svg xmlns="http://www.w3.org/2000/svg" viewBox="0 0 64 64" fill="#74a045">
  <path d="M54 16c0-6.6-5.4-12-12-12-2.8 0-5.3 1-7.3 2.5C33.5 6.2 32.3 6 31 6c-5 0-9.3 3.2-10.9 7.7C15.5 14.8 12 19 12 24c0 2 .6 3.9 1.5 5.5L10 36H8c-1.1 0-2 .9-2 2s.9 2 2 2h3.2l2.3-4.2c1.4.8 3 1.2 4.7 1.2H20v8c0 1.1.9 2 2 2s2-.9 2-2v-8h8v8c0 1.1.9 2 2 2s2-.9 2-2v-8h.8c3.8 0 7-2.3 8.4-5.6.3-.7.5-1.4.5-2.2 0-.9-.2-1.7-.5-2.5 1.9-1.5 3.1-3.8 3.1-6.4 0-.5 0-.9-.1-1.4C50.9 21.5 54 19 54 16zM40 33H18.2c-1.4 0-2.8-.5-3.8-1.5-.8-.9-1.4-2.2-1.4-3.5C13 24.2 15.7 22 19 22c.4 0 .8 0 1.1.1C21 19 23.8 17 27 17c.4 0 .8 0 1.2.1C29.4 15.2 31 14 33 14c2.2 0 4 1.4 4.6 3.4C41.2 18 44 21 44 24.8c0 .7-.1 1.3-.3 2 .8.7 1.3 1.8 1.3 3 0 1.8-1.3 3.2-3 3.2H40z M46 16c1.1 0 2 .9 2 2s-.9 2-2 2-2-.9-2-2 .9-2 2-2z"/>
</svg>
